<svg width="100" height="100" viewBox="0 0 100 100" fill="none" xmlns="http://www.w3.org/2000/svg">
<path fill-rule="evenodd" clip-rule="evenodd" d="M100 43.4349C100 44.5079 99.3628 45.4792 98.3779 45.9049L97.6841 46.2045C97.1746 46.4247 96.8174 46.8955 96.7426 47.4456L96.2856 50.6303C95.8512 54.8766 94.8282 58.6357 94.0446 60.7395C92.9708 63.6223 91.0011 65.9115 87.3029 67.0209C82.6892 68.405 74.8452 69.7947 66.8102 68.4041C60.9426 67.3885 58.8459 62.6127 57.7053 59.9665C57.4063 59.2729 56.7295 57.6227 56.0843 55.4471C56.0819 55.4389 56.079 55.431 56.0766 55.4228L53.5206 47.3156C53.2556 46.6218 52.5381 45.8381 51.61 45.3444C51.2611 45.1588 50.7053 45.0315 50.0727 45.0317C49.4416 45.0319 48.872 45.1594 48.5045 45.3488C47.5701 45.8307 46.871 46.6031 46.5884 47.3431L43.8739 55.4834C43.233 57.6413 42.5644 59.2771 42.2672 59.9665C41.1266 62.6127 39.0307 67.3884 33.1634 68.4041C25.1281 69.7948 17.2832 68.405 12.6696 67.0209C8.97155 65.9114 7.00276 63.6223 5.92899 60.7395C5.15073 58.6501 4.15192 54.8637 3.72104 50.6347L3.25962 47.4951L3.25852 47.483C3.18373 46.9331 2.8264 46.4621 2.31698 46.2419L1.62321 45.9424C0.638278 45.5168 0.000182783 44.5464 0 43.4734C0 42.2339 0.847508 41.1546 2.05158 40.8602L3.00084 40.6279C3.41205 40.5274 3.80428 40.3233 4.05471 40.0773C4.15167 39.9819 4.24029 39.8039 4.38067 39.3427L4.43463 39.1644C5.53993 35.2102 7.53387 33.1615 9.78328 32.1462C11.9236 31.1802 14.2108 31.2198 15.5493 31.1331C20.8563 30.7895 29.1033 31.2822 32.996 31.8952C37.9672 32.678 41.1027 34.5926 42.831 37.0555C43.5519 38.0829 44.0948 39.1609 44.4906 40.3261C44.5521 40.4753 44.6299 40.5517 44.7152 40.6048C44.8162 40.6676 44.9736 40.7241 45.2053 40.7468L49.4494 41.1631C49.876 41.2049 50.3059 41.2041 50.7323 41.1598L54.5227 40.7655C54.8938 40.7086 55.1205 40.6441 55.2683 40.5662C55.3794 40.5075 55.4436 40.4433 55.4973 40.3162C55.8882 39.1769 56.4254 38.0774 57.1425 37.0555C58.8709 34.5926 62.0064 32.678 66.9776 31.8952C70.8703 31.2822 79.1163 30.7896 84.4232 31.1331C85.7877 31.2215 88.0712 31.219 90.2233 32.2277C92.4709 33.2813 94.4703 35.3614 95.5753 39.3141C95.5968 39.3909 95.6185 39.4682 95.6392 39.5454C95.6398 39.5476 95.6397 39.5497 95.6403 39.552L95.6436 39.5641C95.6765 39.6933 95.7042 39.7808 95.7317 39.846C95.7564 39.9047 95.7735 39.9269 95.7768 39.9308C96.0226 40.2105 96.5016 40.4688 96.9992 40.5904L97.9495 40.8228C99.1532 41.1172 99.9998 42.1957 100 43.4349ZM15.6947 33.3829C20.8266 33.0506 28.9068 33.5344 32.6447 34.1229C37.2114 34.8421 39.7097 36.5327 40.9854 38.3505C41.5933 39.2169 42.0454 40.1193 42.374 41.1025C43.8453 45.5044 42.8744 50.917 41.7232 54.8061C41.1113 56.8733 40.4711 58.4372 40.1969 59.0734C39.0391 61.7594 37.3496 65.3905 32.7779 66.1818C25.1925 67.4946 17.7167 66.1809 13.3182 64.8614C10.3727 63.9778 8.89866 62.2514 8.04224 59.9522C7.33022 58.0405 6.36798 54.4209 5.95873 50.3572C5.60644 46.859 5.67218 43.1166 6.60735 39.7711C7.55928 36.366 9.15463 34.9046 10.7105 34.2022C12.3755 33.4508 14.1104 33.4855 15.6947 33.3829ZM67.3278 34.1229C71.0654 33.5343 79.1457 33.0507 84.2778 33.3829C85.8362 33.4838 87.5942 33.4867 89.2664 34.2705C90.8417 35.0091 92.4489 36.5139 93.4015 39.9154L93.4631 40.14C94.3306 43.3908 94.3872 47.0037 94.0479 50.3572C93.6363 54.4242 92.6529 58.0147 91.9313 59.9522C91.0749 62.2514 89.6009 63.9778 86.6554 64.8614C82.2568 66.181 74.7804 67.4947 67.1945 66.1818C62.6229 65.3905 60.9344 61.7594 59.7767 59.0734C59.5016 58.4353 58.8598 56.8723 58.2471 54.8061C57.0942 50.9186 56.1242 45.5096 57.6106 41.1058C57.9418 40.1244 58.3934 39.1981 58.9882 38.3505C60.2639 36.5327 62.7612 34.8421 67.3278 34.1229Z" fill="#7E1010"/>
</svg>
